<?xml version="1.0" encoding="utf-8"?>
<!-- Generator: Adobe Illustrator 22.1.0, SVG Export Plug-In . SVG Version: 6.00 Build 0)  -->
<svg version="1.1" id="图层_1" xmlns="http://www.w3.org/2000/svg" xmlns:xlink="http://www.w3.org/1999/xlink" x="0px" y="0px"
	 viewBox="0 0 200 200" style="enable-background:new 0 0 200 200;" xml:space="preserve">
<style type="text/css">
	.st0{fill:#F81906;}
	.st1{font-family:'MyriadPro-Regular';}
	.st2{font-size:20px;}
</style>
<path class="st0" d="M150.4,66.7h-13.2V47.9c0-22.8-18.5-41.4-41.4-41.4S54.6,25,54.6,47.9v18.8H41.4c-5.2,0-9.4,4.2-9.4,9.4v86.5
	c0,5.2,4.2,9.4,9.4,9.4h109c5.2,0,9.4-4.2,9.4-9.4V76.1C159.8,70.9,155.6,66.7,150.4,66.7z M62.1,47.9C62.1,29.2,77.3,14,95.9,14
	s33.8,15.2,33.8,33.8v18.8H62.1V47.9z M152.3,162.6c0,1-0.8,1.9-1.9,1.9c0,0,0,0,0,0h-109c-1,0-1.9-0.8-1.9-1.9l0,0V76.1
	c0-1,0.8-1.9,1.9-1.9h109c1,0,1.9,0.8,1.9,1.9l0,0V162.6z M95.9,96.8c-6.2,0-11.3,5.1-11.3,11.3c0,4.8,3,9,7.5,10.6v19.4
	c0,2.1,1.7,3.8,3.8,3.8c2.1,0,3.8-1.7,3.8-3.8v-19.4c5.9-2.1,9-8.5,6.9-14.4C105,99.8,100.7,96.8,95.9,96.8z M95.9,111.8
	c-2.1,0-3.8-1.7-3.8-3.8c0-2.1,1.7-3.8,3.8-3.8c2.1,0,3.8,1.7,3.8,3.8c0,0,0,0,0,0C99.7,110.1,98,111.8,95.9,111.8z"/>
<text transform="matrix(1 0 0 1 21 192)" class="st0 st1 st2">Data Encryption</text>
</svg>
