<?xml version="1.0" encoding="utf-8"?>
<!-- Generator: Adobe Illustrator 22.1.0, SVG Export Plug-In . SVG Version: 6.00 Build 0)  -->
<svg version="1.1" id="图层_1" xmlns="http://www.w3.org/2000/svg" xmlns:xlink="http://www.w3.org/1999/xlink" x="0px" y="0px"
	 viewBox="0 0 200 200" style="enable-background:new 0 0 200 200;" xml:space="preserve">
<style type="text/css">
	.st0{fill:#F81906;}
	.st1{font-family:'MyriadPro-Regular';}
	.st2{font-size:20px;}
</style>
<path class="st0" d="M100,138c3.5,0,6.4,2.9,6.4,6.4c0,3.5-2.9,6.4-6.4,6.4s-6.4-2.9-6.4-6.4S96.5,138,100,138L100,138z M54.2,33.6
	L54.2,33.6c3.5,0,6.4,2.9,6.4,6.4c0,3.5-2.9,6.4-6.4,6.4c-3.5,0-6.3-2.8-6.3-6.4C47.8,36.5,50.7,33.6,54.2,33.6L54.2,33.6z
	 M145.6,33.6L145.6,33.6c3.5,0,6.3,2.9,6.3,6.4c0,3.5-2.9,6.4-6.3,6.4c-3.5,0-6.4-2.8-6.4-6.4C139.2,36.5,142.1,33.6,145.6,33.6
	L145.6,33.6z M100,127.8L100,127.8c9.9-7.9,17.8-18.1,23.9-29.3c6.5-12.1,10.7-25.6,12.3-39.2c-1.2-1.2-2.3-2.3-3.5-3.6h0
	c-1.1-1.2-2.2-2.4-3.2-3.7l-58.8,0c-1,1.3-2.1,2.5-3.3,3.7c-1.2,1.4-2.4,2.4-3.5,3.6c1.7,13.6,5.9,27,12.4,39.2
	C82.2,109.7,90.3,119.8,100,127.8L100,127.8z M130.6,102.1L130.6,102.1c-7,12.9-16.4,24.5-28.2,33.5l-0.1,0.1c-1.3,1-3.3,1-4.6,0
	c-11.9-9-21.4-20.7-28.3-33.7C62.2,88.6,57.7,73.5,56,58.3c-0.2-1.3,0.3-2.6,1.3-3.5c1.6-1.4,3-2.8,4.4-4.2l0,0
	c1.3-1.5,2.6-3,3.8-4.7c0.7-0.9,1.9-1.6,3.1-1.6h62.7c1.1,0,2.3,0.5,3,1.5c1.3,1.7,2.6,3.2,3.9,4.8h0c1.3,1.4,2.9,2.8,4.4,4.2h0
	c0.9,0.8,1.5,2,1.3,3.3C142.4,73.5,137.9,88.6,130.6,102.1L130.6,102.1z M100,159.7L100,159.7c42-21.6,65.9-67.9,65.9-114.2v-4
	c-9.8-3.1-17.3-11.2-19.4-21.2l-92.9,0c-2.2,9.9-9.7,18.1-19.5,21.2l0,4C34.1,91.8,58.2,138.1,100,159.7L100,159.7z M102.9,172.5
	L102.9,172.5c-1.7,0.9-3.8,1-5.6,0.1c-47.8-23-75.9-75-75.9-127.1c0-1.2,0-2.7,0.2-4.7c0-1.7,0.1-3.2,0.2-4.6c0-3.1,2.4-5.7,5.6-6.1
	c8-1,14.2-7.9,14.3-16v-0.1c0-3.5,2.9-6.4,6.4-6.4h104h0.2c3.5,0,6.4,2.9,6.4,6.4c0,8.1,6.1,15.1,14.3,16.1c3,0.3,5.5,2.7,5.6,5.9
	c0.1,1.4,0.2,3,0.2,4.8c0.1,2.1,0.1,3.6,0.1,4.7C178.6,97.5,150.7,149.5,102.9,172.5L102.9,172.5z"/>
<text transform="matrix(1 0 0 1 9 192)" class="st0 st1 st2">Safety and Security</text>
</svg>
