<?xml version="1.0" encoding="utf-8"?>
<!-- Generator: Adobe Illustrator 22.1.0, SVG Export Plug-In . SVG Version: 6.00 Build 0)  -->
<svg version="1.1" id="图层_1" xmlns="http://www.w3.org/2000/svg" xmlns:xlink="http://www.w3.org/1999/xlink" x="0px" y="0px"
	 viewBox="0 0 200 200" style="enable-background:new 0 0 200 200;" xml:space="preserve">
<style type="text/css">
	.st0{fill:#F81906;}
	.st1{font-family:'MyriadPro-Regular';}
	.st2{font-size:20px;}
</style>
<path class="st0" d="M180.5,156.6c-8.2-3.6-11.3-11.9-18.1-16.4c-6.3-4.2-5.6-8.8-0.4-13.5c1.7-1.6,3.5-3.3,4.7-5.3
	c1.8-3.1,4-7.1,0.1-9.5c-3.7-2.3-7.7-1.2-9.2,3.8c-3.3,10.7-9.4,7.7-15,2.5c-2.7-2.5-15-14.9-30.1-30.4
	c23.7-23.2,50.7-49.6,60.9-59.5c6.1-5.8,6.9-20,6.9-20s-14.3,1-20.1,7.2c-9.4,9.9-35.6,36.8-58.9,60.7
	C77.8,52.4,51.7,25.4,42.3,15.5c-5.9-6.2-20.1-7.2-20.1-7.2s0.8,14.2,6.9,20c10.3,9.8,37.2,36.2,60.9,59.5
	c-15.2,15.5-27.4,27.9-30.2,30.4c-5.6,5.1-11.7,8.1-15-2.5c-1.5-5-5.5-6.1-9.2-3.8c-3.9,2.4-1.7,6.5,0.1,9.5c1.2,2,2.9,3.7,4.7,5.3
	c5.2,4.7,5.9,9.3-0.4,13.5c-6.8,4.5-9.9,12.9-18.1,16.4c-4.4,1.9-1.4,7.4,1.7,9.7c2.6,1.9,6.5,5.6,9.4-0.6
	c3.7-8.2,12.5-11.8,17.5-18.8c2.6-3.6,6.1-3.1,9.3-0.3c2.4,2.1,4.5,4.5,7.1,6.3c3.3,2.3,7.8,4.5,10.4,0.1c2.2-3.8,0.1-7.4-4.7-9
	c-9.4-3.2-7.1-8.8-2.3-14.5c0.5-0.6,1-1.2,1.6-1.7c3.5-3.4,15.1-14.7,29.4-28.7c14.3,14,25.9,25.4,29.4,28.7
	c0.6,0.5,1.1,1.1,1.6,1.7c4.7,5.7,7,11.2-2.3,14.5c-4.8,1.7-6.9,5.3-4.7,9c2.6,4.4,7.1,2.2,10.4-0.1c2.6-1.8,4.7-4.2,7.1-6.3
	c3.2-2.8,6.7-3.2,9.3,0.3c5.1,7.1,13.8,10.7,17.5,18.8c2.9,6.3,6.9,2.5,9.4,0.6C181.9,164,184.9,158.5,180.5,156.6z"/>
<text transform="matrix(1 0 0 1 6.6667 192)" class="st0 st1 st2">Penetration Testing</text>
</svg>
